<?xml version="1.0" encoding="UTF-8" standalone="no"?>

<svg
   xmlns:dc="http://purl.org/dc/elements/1.1/"
   xmlns:cc="http://creativecommons.org/ns#"
   xmlns:rdf="http://www.w3.org/1999/02/22-rdf-syntax-ns#"
   xmlns:svg="http://www.w3.org/2000/svg"
   xmlns="http://www.w3.org/2000/svg"
   xmlns:sodipodi="http://sodipodi.sourceforge.net/DTD/sodipodi-0.dtd"
   xmlns:inkscape="http://www.inkscape.org/namespaces/inkscape"
   version="1.1"
   id="svg12766"
   xml:space="preserve"
   width="1900"
   height="1700"
   viewBox="0 0 1900 1700"
   sodipodi:docname="camera_hand.svg"
   inkscape:export-xdpi="56.835098"
   inkscape:export-ydpi="56.835098"
   inkscape:version="0.92.5 (2060ec1f9f, 2020-04-08)"><metadata
     id="metadata12772"><rdf:RDF><cc:Work
         rdf:about=""><dc:format>image/svg+xml</dc:format><dc:type
           rdf:resource="http://purl.org/dc/dcmitype/StillImage" /><dc:title></dc:title></cc:Work></rdf:RDF></metadata><defs
     id="defs12770"><clipPath
       clipPathUnits="userSpaceOnUse"
       id="clipPath13074"><path
         d="m 11068.9,7467.5 c -56.4,0 -106.7,25.88 -139.8,66.5 99.6,61.13 170.2,166.25 185.9,288.79 77.6,-20.41 134.6,-91.12 134.6,-174.83 0,-99.87 -80.7,-180.46 -180.7,-180.46"
         id="path13072"
         inkscape:connector-curvature="0" /></clipPath></defs><sodipodi:namedview
     pagecolor="#ffffff"
     bordercolor="#666666"
     borderopacity="1"
     objecttolerance="10"
     gridtolerance="10"
     guidetolerance="10"
     inkscape:pageopacity="0"
     inkscape:pageshadow="2"
     inkscape:window-width="1920"
     inkscape:window-height="986"
     id="namedview12768"
     showgrid="false"
     inkscape:zoom="0.1767767"
     inkscape:cx="3024.8533"
     inkscape:cy="2119.2068"
     inkscape:window-x="-11"
     inkscape:window-y="-11"
     inkscape:window-maximized="1"
     inkscape:current-layer="g12774" /><g
     id="g12774"
     inkscape:groupmode="layer"
     inkscape:label="vector_report12345"
     transform="matrix(1.3333333,0,0,-1.3333333,0,1700)"><path
       inkscape:connector-curvature="0"
       id="path13004"
       style="fill:#ddab7c;fill-opacity:1;fill-rule:nonzero;stroke:none;stroke-width:0.23812228"
       d="m 343.54858,647.54341 c 10.6942,-19.7397 13.3294,-43.0533 14.8723,-65.706 5.8697,-86.2749 -1.0427,-173.4895 -20.4163,-257.5724 -75.317,33.5404 -168.1014,6.9412 -238.945297,49.8743 -15.7877,9.5634 -30.424,23.3329 -35.6827,41.6401 -3.5788,12.4668 -2.4771,25.8373 -1.1206,38.7944 3.7629,35.9823 9.248,71.7651 16.4058,107.1754 5.9569,29.4232 13.143,58.8152 25.634897,85.8831 12.4942,27.0702 30.6505,51.9053 54.9407,67.9196 22.7567,15 59.0291,25.1763 84.94,12.6663 5.9475,-2.8626 11.5317,-8.6429 17.0853,-12.3875 5.6809,-3.8239 11.4915,-7.4508 17.2904,-11.0656 11.7464,-7.3113 23.6107,-14.5001 34.5904,-23.042 12.0224,-9.3543 22.9548,-20.4415 30.4051,-34.1797" /><path
       inkscape:connector-curvature="0"
       id="path13006"
       style="fill:#f6c477;fill-opacity:1;fill-rule:nonzero;stroke:none;stroke-width:0.23812228"
       d="m 522.73808,97.800715 c -12.2371,75.949595 -7.8561,154.631895 12.716,228.699495 14.9573,53.8761 38.6199,107.4446 33.9487,163.2339 -3.7983,45.4159 -10.1209,92.5239 -23.5447,136.0074 -6.8416,22.1528 -14.4854,44.6637 -28.9,62.6704 -12.9165,16.173 -30.5207,27.7408 -44.9023,42.5823 -20.8411,21.5302 -34.3262,49.2903 -53.3766,72.4741 -2.8805,3.5043 -6.391,7.1503 -10.8735,7.3498 -5.4733,0.2404 -9.6821,-4.7276 -12.6216,-9.4432 -24.368,-39.066 -20.8198,-94.0453 8.3562,-129.5373 8.2289,-10.0032 18.1964,-18.5163 25.4887,-29.243 9.5853,-14.1083 13.9781,-31.3436 15.2073,-48.4587 1.2385,-17.1151 -0.5214,-34.2902 -2.2696,-51.3645 -5.9569,-57.9428 -20.8693,-116.1067 -30.6694,-173.5111 -25.1748,8.9529 -52.8858,3.2062 -78.7189,-3.5331 -25.833,-6.7513 -46.7519,-7.9819 -72.9082,-2.6847 -37.0604,7.5109 -67.2769,36.5327 -103.5092,47.4277 4.7089,-15.7115 34.9159,-49.8816 54.2306,-73.0943 18.6375,-22.4027 37.5511,-48.5116 46.634,-76.3798 9.0923,-27.8826 12.2488,-57.3635 14.5373,-86.6354 4.5319,-57.8346 5.8979,-115.928795 4.1096,-173.91249521 84.7349,-1.3699 169.5169,0.4014 254.1196,5.29970001 -5.1902,29.5819002 -2.2884,62.3892002 -7.054,92.0528002" /><path
       inkscape:connector-curvature="0"
       id="path13008"
       style="fill:#f7f7f7;fill-opacity:1;fill-rule:nonzero;stroke:none;stroke-width:0.23812228"
       d="m 309.95858,767.93551 -20.1215,-15.0914 c -1.7104,-1.2811 -4.7278,0.5215 -6.6741,4.0066 l -12.4943,22.3306 c 0,0 -9.3683,18.0981 0.049,29.1324 0,0 8.3255,8.5828 21.872,-4.6555 0,0 5.3176,-5.7179 12.7797,-20.1194 l 4.0884,-7.0903 c 1.9747,-3.4153 2.2012,-7.2296 0.5002,-8.513" /><path
       inkscape:connector-curvature="0"
       id="path13010"
       style="fill:#ddab7c;fill-opacity:1;fill-rule:nonzero;stroke:none;stroke-width:0.23812228"
       d="m 1074.4098,647.54341 c -10.6871,-19.7397 -13.3294,-43.0533 -14.8629,-65.706 -5.8744,-86.2749 1.0381,-173.4895 20.407,-257.5724 75.3287,33.5404 168.1154,6.9412 238.9617,49.8743 15.783,9.5634 30.4099,23.3329 35.6709,41.6401 3.586,12.4668 2.4771,25.8373 1.1324,38.7944 -3.7747,35.9823 -9.2716,71.7651 -16.4199,107.1754 -5.9452,29.4232 -13.1407,58.8152 -25.6444,85.8831 -12.48,27.0702 -30.6458,51.9053 -54.9218,67.9196 -22.7661,15 -59.0268,25.1763 -84.9542,12.6663 -5.9451,-2.8626 -11.5128,-8.6429 -17.0805,-12.3875 -5.6856,-3.8239 -11.4892,-7.4508 -17.2928,-11.0656 -11.7487,-7.3113 -23.6154,-14.5001 -34.5856,-23.042 -12.0319,-9.3543 -22.9549,-20.4415 -30.4099,-34.1797" /><path
       inkscape:connector-curvature="0"
       id="path13012"
       style="fill:#f6c477;fill-opacity:1;fill-rule:nonzero;stroke:none;stroke-width:0.23812228"
       d="m 915.80178,97.800715 c 12.2442,75.949595 7.8561,154.631895 -12.716,228.699495 -14.9572,53.8761 -38.6198,107.4446 -33.9487,163.2339 3.7983,45.4159 10.1209,92.5239 23.5447,136.0074 6.8181,22.1528 14.4854,44.6637 28.8764,62.6704 12.9284,16.173 30.5515,27.7408 44.9189,42.5823 20.8552,21.5302 34.32612,49.2903 53.38832,72.4741 2.8782,3.5043 6.3934,7.1503 10.8759,7.3498 5.4733,0.2404 9.6726,-4.7276 12.6216,-9.4432 24.3468,-39.066 20.808,-94.0453 -8.3751,-129.5373 -8.21,-10.0032 -18.1893,-18.5163 -25.4792,-29.243 -9.57832,-14.1083 -13.98992,-31.3436 -15.21672,-48.4587 -1.2268,-17.1151 0.519,-34.2902 2.2884,-51.3645 5.94512,-57.9428 20.85522,-116.1067 30.64582,-173.5111 25.1961,8.9529 52.8929,3.2062 78.726,-3.5331 25.833,-6.7513 46.759,-7.9819 72.9224,-2.6847 37.0627,7.5109 67.2603,36.5327 103.4974,47.4277 -4.6948,-15.7115 -34.916,-49.8816 -54.2377,-73.0943 -18.6375,-22.4027 -37.5346,-48.5116 -46.6175,-76.3798 -9.1064,-27.8826 -12.2441,-57.3635 -14.5325,-86.6354 -4.5533,-57.8346 -5.898,-115.928795 -4.1286,-173.91249521 -84.7183,-1.3699 -169.50742,0.4014 -254.10772,5.29970001 5.1902,29.5819002 2.2884,62.3892002 7.0539,92.0528002" /><path
       inkscape:connector-curvature="0"
       id="path13014"
       style="fill:#f7f7f7;fill-opacity:1;fill-rule:nonzero;stroke:none;stroke-width:0.23812228"
       d="m 1115.0349,767.93551 20.1239,-15.0914 c 1.7222,-1.2811 4.7419,0.5215 6.6765,4.0066 l 12.48,22.3306 c 0,0 9.3896,18.0981 -0.024,29.1324 0,0 -8.3516,8.5828 -21.8697,-4.6555 0,0 -5.3317,-5.7179 -12.7868,-20.1194 l -4.1049,-7.0903 c -1.9582,-3.4153 -2.1941,-7.2296 -0.4955,-8.513" /><path
       inkscape:connector-curvature="0"
       id="path13016"
       style="fill:#ffffff;fill-opacity:1;fill-rule:nonzero;stroke:none;stroke-width:0.23812228"
       d="M 593.27768,168.02041 V 96.368215 h -350.3483 v 71.652195 h 350.3483" /><path
       inkscape:connector-curvature="0"
       id="path13026"
       style="fill:#ffffff;fill-opacity:1;fill-rule:nonzero;stroke:none;stroke-width:0.23812228"
       d="M 1218.7211,168.02041 V 96.368215 H 868.38218 v 71.652195 h 350.33892" /><path
       inkscape:connector-curvature="0"
       id="path13022"
       style="fill:#ff80b2;fill-opacity:1;fill-rule:nonzero;stroke:none;stroke-width:0.06301134"
       d="M 593.86748,96.368215 V 2.9545148 H 198.31488 V 96.368215 h 395.5526" /><path
       inkscape:connector-curvature="0"
       id="path13024"
       style="fill:#ff2a7f;fill-opacity:1;fill-rule:nonzero;stroke:none;stroke-width:0.06301134"
       d="M 394.88448,96.360515 V 2.9545148 H 197.49858 V 96.360515 h 197.3859" /><path
       inkscape:connector-curvature="0"
       id="path13028"
       style="fill:#ff80b2;fill-opacity:1;fill-rule:nonzero;stroke:none;stroke-width:0.06301134"
       d="M 1218.7211,96.368215 V 2.9545148 H 824.24188 V 96.368215 h 394.47922" /><path
       inkscape:connector-curvature="0"
       id="path13030"
       style="fill:#ff2a7f;fill-opacity:1;fill-rule:nonzero;stroke:none;stroke-width:0.06301134"
       d="M 1019.9126,96.368215 V 2.9545148 H 823.18018 V 96.368215 h 196.73242" /><path
       inkscape:connector-curvature="0"
       id="path13032"
       style="fill:#151817;fill-opacity:1;fill-rule:nonzero;stroke:none;stroke-width:0.23812228"
       d="m 408.62198,987.40331 h -197.3835 c -3.2061,0 -5.8295,2.6726 -5.8295,5.9389 v 57.69289 c 0,3.2639 2.6234,5.9389 5.8295,5.9389 h 197.3835 c 3.2062,0 5.8296,-2.675 5.8296,-5.9389 v -57.69289 c 0,-3.2663 -2.6234,-5.9389 -5.8296,-5.9389" /><g
       id="g18036"
       transform="matrix(0.98299345,0,0,0.50642536,-1846.0009,-104.44189)"><path
         d="m 2903.424,2524.44 c 0,0 -16.44,117.816 -63.528,173.688 -13.776,16.344 -34.104,25.752 -55.488,25.752 h -111.96 -111.936 c -21.384,0 -41.712,-9.408 -55.488,-25.752 -47.088,-55.872 -63.528,-173.688 -63.528,-173.688 -15.96,-92.16 -9.576,-246.84 -9.576,-246.84 l 61.92,-0.038 -0.888,28.8696 c 0,0 -8.592,208.8408 102.096,239.3208 8.424,2.328 17.16,3.408 25.92,3.408 h 51.48 51.504 c 8.76,0 17.472,-1.08 25.92,-3.408 110.664,-30.48 102.096,-239.3208 102.096,-239.3208 l -0.912,-28.8696 61.944,0.038 c 0,0 6.384,154.68 -9.576,246.84"
         style="fill:#171f1f;fill-opacity:1;fill-rule:nonzero;stroke:none;stroke-width:0.23999999"
         id="path13034"
         inkscape:connector-curvature="0" /></g><path
       inkscape:connector-curvature="0"
       id="path13036"
       style="fill:#243a3a;fill-opacity:1;fill-rule:nonzero;stroke:none;stroke-width:0.23812228"
       d="M 1242.6904,1026.2697 H 197.24848 c -45.3057,0 -82.3732,-37.76559 -82.3732,-83.93139 v -539.8597 c 0,-62.3195 50.043,-113.3018 111.2143,-113.3018 h 987.74802 c 61.1736,0 111.2355,50.9823 111.2355,113.3018 v 539.8597 c 0,46.1658 -37.0628,83.93139 -82.3827,83.93139" /><path
       inkscape:connector-curvature="0"
       id="path13038"
       style="fill:#171f1f;fill-opacity:1;fill-rule:nonzero;stroke:none;stroke-width:0.23812228"
       d="m 1325.0731,805.04021 v -402.2804 c 0,-14.1804 -2.6659,-27.6999 -7.3371,-40.198 -15.7593,-42.9115 -56.5968,-73.385 -104.2287,-73.385 H 226.33728 c -47.7357,0 -88.3232,30.4735 -104.2571,73.385 -4.7089,12.4981 -7.2144,26.0176 -7.2144,40.198 v 402.2804 H 1325.0731" /><path
       inkscape:connector-curvature="0"
       id="path13040"
       style="fill:#243a3a;fill-opacity:1;fill-rule:nonzero;stroke:none;stroke-width:0.23812228"
       d="m 1317.736,362.56181 c -15.7593,-42.9115 -56.5968,-73.385 -104.2287,-73.385 H 226.33728 c -47.7357,0 -88.3326,30.4735 -104.2665,73.385 H 1317.736" /><path
       inkscape:connector-curvature="0"
       id="path13042"
       style="fill:#ff0000;fill-opacity:1;fill-rule:nonzero;stroke:none;stroke-width:0.23812228"
       d="m 434.73108,727.88891 c 0,-18.5764 -14.6765,-33.6678 -32.8705,-33.6678 -18.2837,0 -33.0498,15.0914 -33.0498,33.6678 0,18.586 14.7661,33.5788 33.0498,33.5788 18.194,0 32.8705,-14.9928 32.8705,-33.5788" /><path
       inkscape:connector-curvature="0"
       id="path13044"
       style="fill:#f2f2f2;fill-opacity:1;fill-rule:nonzero;stroke:none;stroke-width:0.23812228"
       d="m 309.93028,917.71231 c 0,-14.8101 -21.0959,-26.7794 -47.0162,-26.7794 -25.9605,0 -47.087,11.9693 -47.087,26.7794 0,14.8727 21.1265,26.8492 47.087,26.8492 25.9203,0 47.0162,-11.9765 47.0162,-26.8492" /><path
       inkscape:connector-curvature="0"
       id="path13046"
       style="fill:#f2f2f2;fill-opacity:1;fill-rule:nonzero;stroke:none;stroke-width:0.23812228"
       d="m 1283.1504,734.81811 c 0,-18.6774 -14.91,-33.8481 -33.3117,-33.8481 h -44.8481 c -18.4252,0 -33.2881,15.1707 -33.2881,33.8481 0,18.7182 14.8629,33.9297 33.2881,33.9297 h 44.8481 c 18.4017,0 33.3117,-15.2115 33.3117,-33.9297" /><path
       inkscape:connector-curvature="0"
       id="path13048"
       style="fill:#345151;fill-opacity:1;fill-rule:nonzero;stroke:none;stroke-width:0.23812228"
       d="M 1079.8359,739.71631 H 482.17898 c -7.7452,0 -14.0843,6.4582 -14.0843,14.3511 v 165.0173 c 0,100.18369 80.4765,182.15159 178.8073,182.15159 h 268.2157 c 98.33082,0 178.80252,-81.9679 178.80252,-182.15159 v -165.0173 c 0,-7.8929 -6.3462,-14.3511 -14.0843,-14.3511" /><g
       id="g18042"
       transform="matrix(0.98299345,0,0,0.57105876,-1837.6599,-268.14168)"><path
         d="m 2774.976,2574.888 h -220.2 c -7.896,0 -14.352,6.456 -14.352,14.352 V 2679 c 0,7.896 6.456,14.352 14.352,14.352 h 220.2 c 7.896,0 14.352,-6.456 14.352,-14.352 v -89.76 c 0,-7.896 -6.456,-14.352 -14.352,-14.352"
         style="fill:#3a99a7;fill-opacity:1;fill-rule:nonzero;stroke:none;stroke-width:0.23999999"
         id="path13050"
         inkscape:connector-curvature="0" /><path
         d="m 2642.64,2574.888 h -63.432 v 118.464 h 63.432 v -118.464"
         style="fill:#44aac0;fill-opacity:1;fill-rule:nonzero;stroke:none;stroke-width:0.23999999"
         id="path13052"
         inkscape:connector-curvature="0" /><path
         d="m 2710.656,2574.888 h -68.016 v 118.464 h 68.016 v -118.464"
         style="fill:#72d0d1;fill-opacity:1;fill-rule:nonzero;stroke:none;stroke-width:0.23999999"
         id="path13054"
         inkscape:connector-curvature="0" /><path
         d="m 2746.344,2574.888 h -35.688 v 118.464 h 35.688 v -118.464"
         style="fill:#51c2c9;fill-opacity:1;fill-rule:nonzero;stroke:none;stroke-width:0.23999999"
         id="path13056"
         inkscape:connector-curvature="0" /></g><path
       inkscape:connector-curvature="0"
       id="path13058"
       style="fill:#f2f2f2;fill-opacity:1;fill-rule:nonzero;stroke:none;stroke-width:0.23812228"
       d="m 957.20548,998.51931 h -352.9104 c -7.7617,0 -14.1315,6.46769 -14.1315,14.37989 v 11.9789 c 0,7.9098 6.3698,14.38 14.1315,14.38 h 352.9104 c 7.7617,0 14.1079,-6.4702 14.1079,-14.38 v -11.9789 c 0,-7.9122 -6.3462,-14.37989 -14.1079,-14.37989" /><path
       inkscape:connector-curvature="0"
       id="path13060"
       style="fill:#151817;fill-opacity:1;fill-rule:nonzero;stroke:none;stroke-width:0.23812228"
       d="m 1134.5218,606.28301 c 0,-194.6616 -154.99842,-352.6199 -346.06882,-352.6199 -191.1882,0 -346.123,157.9583 -346.123,352.6199 0,194.6905 154.9348,352.5599 346.123,352.5599 191.0704,0 346.06882,-157.8694 346.06882,-352.5599" /><path
       inkscape:connector-curvature="0"
       id="path13062"
       style="fill:#345151;fill-opacity:1;fill-rule:nonzero;stroke:none;stroke-width:0.23812228"
       d="m 788.45298,277.36851 c -178.3543,0 -322.885,147.2533 -322.885,328.9145 0,181.6709 144.5307,328.8545 322.885,328.8545 178.3308,0 322.76002,-147.1836 322.76002,-328.8545 0,-181.6612 -144.42922,-328.9145 -322.76002,-328.9145 m 0,670.428 c -185.1251,0 -335.2518,-152.8725 -335.2518,-341.5135 0,-188.6433 150.1267,-341.5134 335.2518,-341.5134 185.0781,0 335.26372,152.8701 335.26372,341.5134 0,188.641 -150.18562,341.5135 -335.26372,341.5135" /><path
       inkscape:connector-curvature="0"
       id="path13064"
       style="fill:#171f1f;fill-opacity:1;fill-rule:nonzero;stroke:none;stroke-width:0.23812228"
       d="m 1064.7843,606.28301 c 0,-155.5139 -123.71562,-281.607 -276.33132,-281.607 -152.6392,0 -276.3807,126.0931 -276.3807,281.607 0,155.514 123.7415,281.5759 276.3807,281.5759 152.6157,0 276.33132,-126.0619 276.33132,-281.5759" /><path
       inkscape:connector-curvature="0"
       id="path13066"
       style="fill:#ffd42a;fill-opacity:1;fill-rule:nonzero;stroke:none;stroke-width:0.23812228"
       d="m 988.70058,764.05141 c 85.49682,-112.612 65.20792,-274.6658 -45.3907,-361.7434 -110.6929,-87.2146 -269.6076,-66.5256 -355.1752,46.2187 -85.4402,112.7322 -65.2314,274.6562 45.4379,361.7699 110.5514,87.1761 269.6312,66.4174 355.128,-46.2452" /><g
       id="g13068"
       transform="matrix(0.23591843,0,0,0.24034673,-1846.0009,-1231.8791)"
       style="fill:#fff6d5"><g
         clip-path="url(#clipPath13074)"
         id="g13070"
         style="fill:#fff6d5"><path
           inkscape:connector-curvature="0"
           id="path13076"
           style="fill:#fff6d5;fill-opacity:1;fill-rule:nonzero;stroke:none"
           d="m 10929.1,7467.5 h 320.5 v 355.293 h -320.5 z" /></g></g><path
       inkscape:connector-curvature="0"
       id="path13078"
       style="fill:#ffeeaa;fill-opacity:1;fill-rule:nonzero;stroke:none;stroke-width:0.23812228"
       d="m 684.88488,565.22461 c -50.8876,0 -92.1026,42.7817 -92.1026,95.4778 0,52.7248 41.215,95.4777 92.1026,95.4777 50.8404,0 92.1261,-42.7529 92.1261,-95.4777 0,-4.2061 -0.2595,-8.3425 -0.7785,-12.3995 -3.468,0.9325 -7.1248,1.4228 -10.8759,1.4228 -23.4503,0 -42.5125,-19.5089 -42.5125,-43.4427 0,-10.395 3.5624,-19.9295 9.5311,-27.3899 -13.872,-8.6717 -30.1267,-13.6685 -47.4903,-13.6685" /><path
       inkscape:connector-curvature="0"
       id="path13080"
       style="fill:#ffeeaa;fill-opacity:1;fill-rule:nonzero;stroke:none;stroke-width:0.23812228"
       d="m 732.37518,578.89311 c -5.9687,7.4604 -9.5311,16.9949 -9.5311,27.3899 0,23.9338 19.0622,43.4427 42.5125,43.4427 3.7511,0 7.4079,-0.4903 10.8759,-1.4228 -3.7039,-29.4521 -20.3598,-54.7174 -43.8573,-69.4098" /><path
       inkscape:connector-curvature="0"
       id="path13082"
       style="fill:#151817;fill-opacity:1;fill-rule:nonzero;stroke:none;stroke-width:0.23812228"
       d="m 239.86248,805.63141 v -444.2521 h -117.7823 c -4.7089,13.1807 -7.816,27.2001 -7.816,41.3805 v 402.8716 h 125.5983" /><path
       inkscape:connector-curvature="0"
       id="path13084"
       style="fill:#f6c477;fill-opacity:1;fill-rule:nonzero;stroke:none;stroke-width:0.23812228"
       d="m 236.36378,633.08171 1.6609,2.8938 c 10.4299,18.1558 4.3834,41.7098 -13.4379,52.3355 l -109.0934,65.045 c -17.821297,10.6257 -40.941297,4.4657 -51.371297,-13.6997 l -1.6608,-2.8938 c -10.43,-18.1582 -4.3834,-41.7026 13.4473,-52.3355 l 109.083997,-65.0354 c 17.8213,-10.6258 40.9413,-4.4657 51.3712,13.6901" /><path
       inkscape:connector-curvature="0"
       id="path13086"
       style="fill:#f6c477;fill-opacity:1;fill-rule:nonzero;stroke:none;stroke-width:0.23812228"
       d="m 232.49948,547.88841 0.069,0.1418 c 9.281,20.0377 0.7762,44.1637 -18.8829,53.6166 l -135.752197,65.2541 c -19.6685,9.4528 -43.35,0.8003 -52.6287,-19.2374 l -0.069,-0.1514 c -9.2787,-20.0281 -0.7762,-44.1637 18.8829,-53.6069 l 135.752197,-65.2638 c 19.6685,-9.4528 43.35,-0.7907 52.6287,19.247" /><path
       inkscape:connector-curvature="0"
       id="path13088"
       style="fill:#f6c477;fill-opacity:1;fill-rule:nonzero;stroke:none;stroke-width:0.23812228"
       d="m 214.49178,467.35301 1.3259,4.0451 c 6.5184,19.879 -4.0979,41.5703 -23.6107,48.2207 l -141.628897,48.2376 c -19.5129,6.6408 -40.8045002,-4.1844 -47.3324002,-24.0539 l -1.3258,-4.045 c -6.5184,-19.8791 4.1073,-41.5704 23.6107002,-48.2208 l 141.638297,-48.228 c 19.5034,-6.6504 40.7951,4.1749 47.3229,24.0443" /><path
       inkscape:connector-curvature="0"
       id="path13090"
       style="fill:#f6c477;fill-opacity:1;fill-rule:nonzero;stroke:none;stroke-width:0.23812228"
       d="m 170.62988,394.58801 1.5735,4.7757 c 5.3082,16.185 -3.3429,33.8505 -19.2273,39.2679 l -109.496797,37.2946 c -15.8844,5.4078 -33.2339,-3.4057 -38.5420002,-19.5883 l -1.5642,-4.7781 c -5.3176,-16.1825 3.343,-33.848 19.2274002,-39.2654 l 109.496797,-37.2946 c 15.8844,-5.4078 33.2244,3.4057 38.5326,19.5882" /><path
       inkscape:connector-curvature="0"
       id="path13092"
       style="fill:#cc00ff;fill-opacity:1;fill-rule:nonzero;stroke:none;stroke-width:0.23812228"
       d="m 174.71828,647.19251 20.1829,35.8116 c 1.7198,3.0548 5.5724,4.0763 8.5402,2.2617 l 19.0032,-11.6448 c 0,0 14.5279,-10.1643 5.898,-31.1658 0,0 -7.8844,-17.3242 -26.2459,-16.4325 0,0 -7.3135,0.9013 -18.8853,8.9818 l -6.1811,3.5763 c -2.9796,1.7209 -4.0106,5.5761 -2.312,8.6117" /><path
       inkscape:connector-curvature="0"
       id="path13094"
       style="fill:#d42aff;fill-opacity:1;fill-rule:nonzero;stroke:none;stroke-width:0.23812228"
       d="m 169.90318,558.68481 18.2625,36.862 c 1.5641,3.1461 5.3577,4.3767 8.4152,2.7255 l 19.5812,-10.5969 c 0,0 15.0398,-9.3519 7.5211,-30.8028 0,0 -6.9596,-17.7256 -25.3329,-17.8362 0,0 -7.363,0.5096 -19.3359,7.9507 l -6.3603,3.2255 c -3.067,1.5622 -4.2938,5.3573 -2.7509,8.4722" /><path
       inkscape:connector-curvature="0"
       id="path13096"
       style="fill:#d42aff;fill-opacity:1;fill-rule:nonzero;stroke:none;stroke-width:0.23812228"
       d="m 149.56468,465.24041 12.0224,39.4361 c 1.031,3.3648 4.5698,5.2179 7.8537,4.1051 l 21.0369,-7.1503 c 0,0 16.3562,-6.6889 12.4235,-29.1108 0,0 -3.98,-18.6581 -22.0867,-21.862 0,0 -7.3442,-0.7402 -20.3574,4.5859 l -6.7945,2.115 c -3.2816,1.0095 -5.11,4.5546 -4.0979,7.881" /><path
       inkscape:connector-curvature="0"
       id="path13098"
       style="fill:#cc00ff;fill-opacity:1;fill-rule:nonzero;stroke:none;stroke-width:0.23812228"
       d="m 108.96788,397.46261 10.5172,34.4994 c 0.8941,2.9442 4.0012,4.5569 6.87,3.5859 l 18.4016,-6.249 c 0,0 14.3037,-5.85 10.864,-25.4671 0,0 -3.4798,-16.3148 -19.3264,-19.1172 0,0 -6.4193,-0.6513 -17.8024,4.0042 l -5.9475,1.8434 c -2.8593,0.8917 -4.473,3.985 -3.5765,6.9004" /><path
       inkscape:connector-curvature="0"
       id="path13108"
       style="fill:#f6c477;fill-opacity:1;fill-rule:nonzero;stroke:none;stroke-width:0.23812228"
       d="m 1188.6179,633.08171 -1.6514,2.8938 c -10.4276,18.1558 -4.3645,41.7098 13.4473,52.3355 l 109.0887,65.045 c 17.8118,10.6257 40.9318,4.4657 51.3594,-13.6997 l 1.675,-2.8938 c 10.4276,-18.1582 4.3881,-41.7026 -13.4473,-52.3355 l -109.0887,-65.0354 c -17.8118,-10.6258 -40.9318,-4.4657 -51.383,13.6901" /><path
       inkscape:connector-curvature="0"
       id="path13110"
       style="fill:#f6c477;fill-opacity:1;fill-rule:nonzero;stroke:none;stroke-width:0.23812228"
       d="m 1192.5105,547.88841 -0.071,0.1418 c -9.2952,20.0377 -0.8022,44.1637 18.8734,53.6166 l 135.7475,65.2541 c 19.6756,9.4528 43.3382,0.8003 52.6334,-19.2374 l 0.071,-0.1514 c 9.2716,-20.0281 0.7785,-44.1637 -18.8971,-53.6069 l -135.7475,-65.2638 c -19.652,-9.4528 -43.3382,-0.7907 -52.6098,19.247" /><path
       inkscape:connector-curvature="0"
       id="path13112"
       style="fill:#f6c477;fill-opacity:1;fill-rule:nonzero;stroke:none;stroke-width:0.23812228"
       d="m 1210.5111,467.35301 -1.3211,4.0451 c -6.535,19.879 4.0814,41.5703 23.5918,48.2207 l 141.6454,48.2376 c 19.5105,6.6408 40.7903,-4.1844 47.3253,-24.0539 l 1.3211,-4.045 c 6.535,-19.8791 -4.105,-41.5704 -23.6154,-48.2208 l -141.6219,-48.228 c -19.5104,-6.6504 -40.8138,4.1749 -47.3252,24.0443" /><path
       inkscape:connector-curvature="0"
       id="path13114"
       style="fill:#f6c477;fill-opacity:1;fill-rule:nonzero;stroke:none;stroke-width:0.23812228"
       d="m 1254.3683,394.58801 -1.5806,4.7757 c -5.3082,16.185 3.35,33.8505 19.2273,39.2679 l 109.5134,37.2946 c 15.8773,5.4078 33.2173,-3.4057 38.5255,-19.5883 l 1.5806,-4.7781 c 5.3082,-16.1825 -3.35,-33.848 -19.2273,-39.2654 l -109.5134,-37.2946 c -15.8773,-5.4078 -33.2173,3.4057 -38.5255,19.5882" /><path
       inkscape:connector-curvature="0"
       id="path13116"
       style="fill:#cc00ff;fill-opacity:1;fill-rule:nonzero;stroke:none;stroke-width:0.23812228"
       d="m 1250.2634,647.19251 -20.1711,35.8116 c -1.7222,3.0548 -5.5676,4.0763 -8.5402,2.2617 l -18.9914,-11.6448 c 0,0 -14.5326,-10.1643 -5.898,-31.1658 0,0 7.8797,-17.3242 26.2341,-16.4325 0,0 7.3135,0.9013 18.8735,8.9818 l 6.1811,3.5763 c 2.9961,1.7209 4.0342,5.5761 2.312,8.6117" /><path
       inkscape:connector-curvature="0"
       id="path13118"
       style="fill:#cc00ff;fill-opacity:1;fill-rule:nonzero;stroke:none;stroke-width:0.23812228"
       d="m 1255.0997,558.68481 -18.2601,36.862 c -1.5571,3.1461 -5.3553,4.3767 -8.4223,2.7255 l -19.5812,-10.5969 c 0,0 -15.0516,-9.3519 -7.5258,-30.8028 0,0 6.9596,-17.7256 25.3376,-17.8362 0,0 7.3607,0.5096 19.3218,7.9507 l 6.3697,3.2255 c 3.067,1.5622 4.2938,5.3573 2.7603,8.4722" /><path
       inkscape:connector-curvature="0"
       id="path13120"
       style="fill:#cc00ff;fill-opacity:1;fill-rule:nonzero;stroke:none;stroke-width:0.23812228"
       d="m 1275.4359,465.24041 -12.0319,39.4361 c -1.0144,3.3648 -4.5768,5.2179 -7.8561,4.1051 l -21.0439,-7.1503 c 0,0 -16.3491,-6.6889 -12.4093,-29.1108 0,0 3.987,-18.6581 22.082,-21.862 0,0 7.3606,-0.7402 20.3597,4.5859 l 6.7945,2.115 c 3.2792,1.0095 5.1194,4.5546 4.105,7.881" /><path
       inkscape:connector-curvature="0"
       id="path13122"
       style="fill:#d42aff;fill-opacity:1;fill-rule:nonzero;stroke:none;stroke-width:0.23812228"
       d="m 1316.0374,397.46261 -10.5219,34.4994 c -0.8965,2.9442 -4.0107,4.5569 -6.8653,3.5859 l -18.4016,-6.249 c 0,0 -14.3202,-5.85 -10.8758,-25.4671 0,0 3.4916,-16.3148 19.3217,-19.1172 0,0 6.417,-0.6513 17.8118,4.0042 l 5.9452,1.8434 c 2.8546,0.8917 4.4588,3.985 3.5859,6.9004" /></g></svg>