<?xml version="1.0" encoding="UTF-8" standalone="no"?>

<svg
   xmlns:dc="http://purl.org/dc/elements/1.1/"
   xmlns:cc="http://creativecommons.org/ns#"
   xmlns:rdf="http://www.w3.org/1999/02/22-rdf-syntax-ns#"
   xmlns:svg="http://www.w3.org/2000/svg"
   xmlns="http://www.w3.org/2000/svg"
   xmlns:sodipodi="http://sodipodi.sourceforge.net/DTD/sodipodi-0.dtd"
   xmlns:inkscape="http://www.inkscape.org/namespaces/inkscape"
   version="1.1"
   id="svg12766"
   xml:space="preserve"
   width="800"
   height="2900"
   viewBox="0 0 800 2900"
   sodipodi:docname="mic_hand.svg"
   inkscape:export-xdpi="56.835098"
   inkscape:export-ydpi="56.835098"
   inkscape:version="0.92.5 (2060ec1f9f, 2020-04-08)"><metadata
     id="metadata12772"><rdf:RDF><cc:Work
         rdf:about=""><dc:format>image/svg+xml</dc:format><dc:type
           rdf:resource="http://purl.org/dc/dcmitype/StillImage" /><dc:title></dc:title></cc:Work></rdf:RDF></metadata><defs
     id="defs12770"><clipPath
       clipPathUnits="userSpaceOnUse"
       id="clipPath13074"><path
         d="m 11068.9,7467.5 c -56.4,0 -106.7,25.88 -139.8,66.5 99.6,61.13 170.2,166.25 185.9,288.79 77.6,-20.41 134.6,-91.12 134.6,-174.83 0,-99.87 -80.7,-180.46 -180.7,-180.46"
         id="path13072"
         inkscape:connector-curvature="0" /></clipPath></defs><sodipodi:namedview
     pagecolor="#ffffff"
     bordercolor="#666666"
     borderopacity="1"
     objecttolerance="10"
     gridtolerance="10"
     guidetolerance="10"
     inkscape:pageopacity="0"
     inkscape:pageshadow="2"
     inkscape:window-width="1920"
     inkscape:window-height="986"
     id="namedview12768"
     showgrid="false"
     inkscape:zoom="0.1767767"
     inkscape:cx="2469.5894"
     inkscape:cy="1777.0575"
     inkscape:window-x="-11"
     inkscape:window-y="-11"
     inkscape:window-maximized="1"
     inkscape:current-layer="g12774" /><g
     id="g12774"
     inkscape:groupmode="layer"
     inkscape:label="vector_report12345"
     transform="matrix(1.3333333,0,0,-1.3333333,0,2900)"><path
       inkscape:connector-curvature="0"
       id="path12892"
       style="fill:#ddab7c;fill-opacity:1;fill-rule:nonzero;stroke:none;stroke-width:0.23954572"
       d="m 142.45626,1201.5543 c -13.53874,-26.8543 -15.86455,-58.0268 -16.73763,-88.2474 -3.30712,-115.13281 10.9147,-230.81429 41.992,-341.63359 101.09683,48.79866 229.36255,18.53032 323.83552,79.57517 21.05733,13.61086 40.30837,32.73524 46.49208,57.37792 4.20906,16.80063 1.97225,34.52456 -0.59167,51.68306 -7.11692,47.67494 -16.55725,94.99204 -28.28249,141.72464 -9.74097,38.8094 -21.1848,77.5234 -39.73353,112.8567 -18.55114,35.3334 -44.72668,67.3743 -78.79121,87.3433 -31.92874,18.7045 -82.04542,30.2516 -116.781,12.1674 -7.97797,-4.1512 -15.29212,-12.1436 -22.67842,-17.4161 -7.55707,-5.4157 -15.29212,-10.569 -23.02957,-15.6984 -15.64328,-10.3781 -31.46694,-20.5893 -46.00865,-32.5659 -15.92468,-13.1217 -30.2451,-28.4623 -39.68543,-47.1668" /><path
       inkscape:connector-curvature="0"
       id="path12894"
       style="fill:#f6c477;fill-opacity:1;fill-rule:nonzero;stroke:none;stroke-width:0.23954572"
       d="m 506.16963,817.02453 c 25.12208,31.95747 64.54775,79.09801 70.13017,100.27178 -48.92613,-16.51196 -88.64042,-56.79102 -138.87977,-68.83918 -35.45472,-8.50052 -64.1076,-8.01383 -99.7836,-0.46762 -35.67841,7.54383 -73.87022,13.67766 -107.79285,0.36741 -13.90914,63.80997 -33.39108,131.3656 -45.76812,195.90078 L 8.8775105,1030.8282 C 8.3074834,1021.7026 7.5859302,1008.9697 7.1842655,999.92287 3.8482842,925.42703 39.122619,855.45461 62.512971,784.58752 94.682222,687.16674 104.96436,582.71031 92.406924,480.95696 c -4.899347,-39.72317 0.863458,-83.22303 -4.629967,-122.87701 115.900703,-1.84898 231.871143,0.4867 347.598673,6.98794 -5.6209,77.07011 -6.91489,154.43844 -3.88677,231.64931 1.52248,39.08617 4.2283,78.49203 15.12135,116.08709 10.89305,37.59744 35.30561,73.37215 59.55942,104.22024" /><path
       inkscape:connector-curvature="0"
       id="path12896"
       style="fill:#3a464d;fill-opacity:1;fill-rule:nonzero;stroke:none;stroke-width:0.23954572"
       d="m 570.03671,1908.3882 c 0.019,-14.2669 -1.10397,-28.2714 -3.26863,-41.9419 -1.26272,-8.064 -2.89584,-16.0086 -4.88973,-23.8101 -5.27215,-20.7562 -13.0072,-40.5582 -22.86843,-59.0479 -13.50026,-25.3608 -30.99793,-48.2881 -51.67283,-67.9708 -9.71933,-9.2807 -20.13134,-17.8217 -31.17592,-25.5517 -22.95982,-16.1278 -48.58458,-28.7486 -76.07336,-37.1226 -19.04179,-5.7975 -38.98552,-9.567 -59.56903,-11.0223 -6.35448,-0.4533 -12.75706,-0.6919 -19.2318,-0.6919 -6.48436,-0.024 -12.89656,0.2147 -19.25104,0.668 -20.59313,1.4076 -40.53687,5.1294 -59.5979,10.8792 -27.51042,8.3263 -53.15442,20.8994 -76.14311,36.9556 -11.06382,7.7061 -21.49748,16.2472 -31.23845,25.4801 -20.703768,19.6588 -38.261564,42.5623 -51.812335,67.8753 -9.899711,18.466 -17.678055,38.2679 -22.998308,59.0003 -2.003513,7.8015 -3.658275,15.7461 -4.940235,23.7862 -2.195927,13.6705 -3.338386,27.675 -3.348007,41.9419 -0.01002,6.7279 0.230897,13.3842 0.731174,19.969 0.622941,8.6126 1.664383,17.106 3.107489,25.4801 3.747267,21.8059 10.171496,42.7292 18.909507,62.4119 20.083233,45.1627 52.432875,83.7884 92.871125,111.6781 8.90878,6.1315 18.2096,11.7619 27.85917,16.8197 13.0986,6.8711 26.83938,12.6924 41.1093,17.3685 19.90284,6.537 40.84713,10.8076 62.50335,12.5253 7.14578,0.5965 14.38296,0.8828 21.66824,0.9066 7.2949,0 14.52006,-0.2863 21.65622,-0.835 21.66584,-1.6939 42.61253,-5.9406 62.53462,-12.406 14.27954,-4.6523 28.02994,-10.4497 41.14778,-17.2969 9.66159,-5.034 18.97204,-10.6406 27.89044,-16.772 40.49838,-27.7943 72.92739,-66.3485 93.11164,-111.4873 8.77889,-19.6588 15.25123,-40.5582 19.03938,-62.3642 1.46476,-8.3502 2.52544,-16.8436 3.16762,-25.4562 0.5099,-6.5848 0.76244,-13.265 0.77206,-19.969" /><path
       inkscape:connector-curvature="0"
       id="path12898"
       style="fill:#2b3135;fill-opacity:1;fill-rule:nonzero;stroke:none;stroke-width:0.23954572"
       d="m 569.73607,1908.4359 c 0.019,-11.2131 -0.67105,-22.2593 -2.02516,-33.0907 -0.3704,-2.9822 -0.78169,-5.9167 -1.24348,-8.8512 -1.27234,-8.0878 -2.89583,-16.0086 -4.88973,-23.8101 -5.27215,-20.7801 -12.99758,-40.5582 -22.86843,-59.0479 -13.50026,-25.3608 -30.99792,-48.2881 -51.6608,-67.9708 -9.72173,-9.2807 -20.14337,-17.8217 -31.18794,-25.5755 -22.95983,-16.104 -48.58459,-28.7247 -76.07337,-37.0988 -19.03217,-5.7975 -38.98552,-9.567 -59.56903,-11.0223 -6.35448,-0.4533 -12.76668,-0.6919 -19.2318,-0.7157 -6.48436,0 -12.90618,0.2385 -19.25104,0.6918 -20.59313,1.4076 -40.53686,5.1295 -59.5979,10.8792 -27.51042,8.3263 -53.15442,20.8755 -76.15514,36.9556 -11.05179,7.7061 -21.48545,16.2472 -31.22642,25.4801 -20.703765,19.6588 -38.261561,42.5384 -51.812332,67.8754 -9.899711,18.4659 -17.66603,38.2678 -22.998308,59.0002 -2.003513,7.8015 -3.658275,15.7461 -4.940235,23.7862 -2.205548,13.6705 -3.338387,27.675 -3.348007,41.9419 -0.01002,6.7279 0.230897,13.3842 0.731174,19.969 0.622941,8.6126 1.664383,17.106 3.107489,25.4562 3.747267,21.8299 10.161875,42.7531 18.909506,62.4119 9.791478,22.0446 22.510058,42.5145 37.662677,60.9327 15.903036,19.3725 34.492656,36.4547 55.208446,50.7693 8.90878,6.1315 18.2096,11.7619 27.85917,16.8198 13.0986,6.871 26.83938,12.6923 41.11892,17.3684 19.89322,6.537 40.83751,10.8076 62.48411,12.5253 7.1554,0.5965 14.39258,0.8828 21.67786,0.8828 7.28529,0.024 14.52006,-0.2625 21.65622,-0.8112 21.66584,-1.6939 42.62216,-5.9406 62.525,-12.4299 14.28916,-4.6284 28.04918,-10.4258 41.1574,-17.2969 9.65198,-5.0101 18.97204,-10.6167 27.89044,-16.7481 40.49838,-27.8182 72.92739,-66.3484 93.11164,-111.4873 8.7789,-19.6588 15.25123,-40.5582 19.03939,-62.3642 1.46475,-8.3502 2.51581,-16.8436 3.16761,-25.4562 0.50028,-6.5848 0.76245,-13.2649 0.77207,-19.969" /><path
       inkscape:connector-curvature="0"
       id="path12900"
       style="fill:#3a464d;fill-opacity:1;fill-rule:nonzero;stroke:none;stroke-width:0.23954572"
       d="m 569.73607,1908.4359 c 0.019,-11.2131 -0.67105,-22.2593 -2.02516,-33.0907 -6.92451,-8.4456 -14.37094,-16.4618 -22.27676,-23.977 -9.72173,-9.2807 -20.13374,-17.8456 -31.17832,-25.5517 -22.95982,-16.1278 -48.57496,-28.7486 -76.06374,-37.1227 -19.05141,-5.7974 -38.98312,-9.5669 -59.57865,-11.0223 -6.34246,-0.4533 -12.75706,-0.6918 -19.24142,-0.7157 -6.46272,0 -12.88694,0.2147 -19.24142,0.668 -20.58351,1.4315 -40.54649,5.1533 -59.58828,10.903 -27.50802,8.3264 -53.15442,20.8994 -76.15273,36.9557 -11.0542,7.706 -21.49748,16.2233 -31.23845,25.4801 -20.71339,19.6349 -38.25194,42.5384 -51.80993,67.8753 -9.90212,18.4659 -17.66843,38.244 -22.991093,59.0002 -2.013133,7.8015 -3.658275,15.7223 -4.940234,23.7862 -2.205548,13.6705 -3.348008,27.675 -3.357628,41.942 -0.01002,6.7279 0.240517,13.3842 0.721553,19.9689 0.331915,4.3898 0.762441,8.7558 1.293986,13.0979 15.903036,19.3725 34.492656,36.4547 55.208446,50.7693 8.90878,6.1315 18.2096,11.7619 27.85917,16.8198 13.0986,6.871 26.83938,12.6923 41.11892,17.3684 19.89322,6.537 40.83751,10.8076 62.48411,12.5253 7.1554,0.5965 14.39258,0.8828 21.67786,0.8828 7.28529,0.024 14.52006,-0.2625 21.65622,-0.8112 21.66584,-1.6939 42.62216,-5.9406 62.525,-12.4299 14.28916,-4.6284 28.04918,-10.4258 41.1574,-17.2969 9.65198,-5.0101 18.97204,-10.6167 27.89044,-16.7481 40.49838,-27.8182 72.92739,-66.3484 93.11164,-111.4873 8.7789,-19.6588 15.25123,-40.5582 19.03939,-62.3642 1.46475,-8.3502 2.51581,-16.8436 3.16761,-25.4562 0.50028,-6.5848 0.76245,-13.2649 0.77207,-19.969" /><path
       inkscape:connector-curvature="0"
       id="path12902"
       style="fill:#505d62;fill-opacity:1;fill-rule:nonzero;stroke:none;stroke-width:0.23954572"
       d="m 175.43606,2144.1744 c -5.46216,-9.8055 -15.85253,-16.5095 -27.85917,-16.8197 8.90878,6.1315 18.2096,11.7619 27.85917,16.8197" /><path
       inkscape:connector-curvature="0"
       id="path12904"
       style="fill:#505d62;fill-opacity:1;fill-rule:nonzero;stroke:none;stroke-width:0.23954572"
       d="m 282.23557,2160.0876 c 0.022,-18.0126 -14.67159,-32.6374 -32.81865,-32.6374 -18.15909,-0.024 -32.88119,14.5532 -32.90283,32.5658 0,0.5249 0.012,1.0259 0.0311,1.5269 19.90285,6.537 40.84714,10.8076 62.50336,12.5253 2.03478,-4.2228 3.17723,-8.9705 3.18686,-13.9806" /><path
       inkscape:connector-curvature="0"
       id="path12906"
       style="fill:#505d62;fill-opacity:1;fill-rule:nonzero;stroke:none;stroke-width:0.23954572"
       d="m 384.94868,2160.183 c 0.01,-17.9887 -14.68361,-32.6136 -32.83068,-32.6374 -18.14947,-0.024 -32.88118,14.5771 -32.90283,32.5658 0,5.0102 1.13284,9.7817 3.158,14.0284 21.66584,-1.6939 42.61253,-5.9406 62.53462,-12.406 0.0291,-0.5249 0.0291,-1.0259 0.0411,-1.5508" /><path
       inkscape:connector-curvature="0"
       id="path12908"
       style="fill:#505d62;fill-opacity:1;fill-rule:nonzero;stroke:none;stroke-width:0.23954572"
       d="m 453.94601,2127.6649 c -12.00665,0.3101 -22.39702,6.9903 -27.89044,16.772 9.66159,-5.034 18.97204,-10.6406 27.89044,-16.772" /><path
       inkscape:connector-curvature="0"
       id="path12910"
       style="fill:#505d62;fill-opacity:1;fill-rule:nonzero;stroke:none;stroke-width:0.23954572"
       d="m 179.62588,2072.458 c 0.019,-18.0126 -14.6812,-32.6135 -32.83068,-32.6374 -18.14947,-0.024 -32.88118,14.5532 -32.90042,32.5658 -0.022,18.0127 14.6812,32.6136 32.83067,32.6375 18.14947,0 32.88119,-14.5533 32.90043,-32.5659" /><path
       inkscape:connector-curvature="0"
       id="path12912"
       style="fill:#505d62;fill-opacity:1;fill-rule:nonzero;stroke:none;stroke-width:0.23954572"
       d="m 282.33658,2072.5535 c 0.01,-17.9888 -14.6812,-32.6136 -32.83067,-32.6375 -18.14947,-0.024 -32.88118,14.5771 -32.90043,32.5659 -0.019,18.0126 14.68121,32.6135 32.83068,32.6374 18.14947,0.024 32.88118,-14.5532 32.90042,-32.5658" /><path
       inkscape:connector-curvature="0"
       id="path12914"
       style="fill:#505d62;fill-opacity:1;fill-rule:nonzero;stroke:none;stroke-width:0.23954572"
       d="m 385.03767,2072.6727 c 0.019,-18.0126 -14.68121,-32.6135 -32.83068,-32.6374 -18.14947,-0.024 -32.88118,14.5533 -32.90042,32.5659 -0.01,17.9887 14.6812,32.6135 32.83067,32.6374 18.14947,0.024 32.88119,-14.5771 32.90043,-32.5659" /><path
       inkscape:connector-curvature="0"
       id="path12916"
       style="fill:#505d62;fill-opacity:1;fill-rule:nonzero;stroke:none;stroke-width:0.23954572"
       d="m 487.74837,2072.7682 c 0.022,-17.9888 -14.6812,-32.6136 -32.83067,-32.6374 -18.14947,0 -32.88119,14.577 -32.90043,32.5658 -0.019,18.0126 14.68121,32.6374 32.83068,32.6374 18.14947,0.024 32.88118,-14.5532 32.90042,-32.5658" /><path
       inkscape:connector-curvature="0"
       id="path12918"
       style="fill:#505d62;fill-opacity:1;fill-rule:nonzero;stroke:none;stroke-width:0.23954572"
       d="m 77.004166,1984.8285 c 0.02205,-18.0126 -14.671583,-32.6136 -32.821053,-32.6374 -2.895834,0 -5.712297,0.3578 -8.386855,1.0736 3.747267,21.8059 10.171496,42.7292 18.909507,62.4119 12.959097,-4.366 22.288781,-16.5096 22.298401,-30.8481" /><path
       inkscape:connector-curvature="0"
       id="path12920"
       style="fill:#505d62;fill-opacity:1;fill-rule:nonzero;stroke:none;stroke-width:0.23954572"
       d="m 179.71487,1984.9239 c 0.0221,-17.9888 -14.6812,-32.6136 -32.83067,-32.6374 -18.14707,0 -32.87878,14.5771 -32.89081,32.5658 -0.019,18.0126 14.67159,32.6136 32.82106,32.6374 18.15909,0.024 32.88118,-14.5532 32.90042,-32.5658" /><path
       inkscape:connector-curvature="0"
       id="path12922"
       style="fill:#505d62;fill-opacity:1;fill-rule:nonzero;stroke:none;stroke-width:0.23954572"
       d="m 282.42798,1985.0432 c 0.019,-18.0126 -14.68361,-32.6136 -32.83067,-32.6374 -18.14947,-0.024 -32.88119,14.5532 -32.90283,32.5658 -0.019,18.0126 14.68361,32.6136 32.83067,32.6374 18.14947,0.024 32.88118,-14.5771 32.90283,-32.5658" /><path
       inkscape:connector-curvature="0"
       id="path12924"
       style="fill:#505d62;fill-opacity:1;fill-rule:nonzero;stroke:none;stroke-width:0.23954572"
       d="m 385.12906,1985.1386 c 0.019,-18.0126 -14.67158,-32.6135 -32.83067,-32.6135 -18.14947,-0.024 -32.87156,14.5532 -32.8908,32.5658 -0.0221,17.9888 14.67158,32.5897 32.83067,32.6136 18.14707,0.024 32.86916,-14.5533 32.8908,-32.5659" /><path
       inkscape:connector-curvature="0"
       id="path12926"
       style="fill:#505d62;fill-opacity:1;fill-rule:nonzero;stroke:none;stroke-width:0.23954572"
       d="m 487.83977,1985.2579 c 0.019,-18.0126 -14.68121,-32.6136 -32.83068,-32.6374 -18.14947,-0.024 -32.88118,14.5532 -32.90042,32.5658 -0.0221,17.9888 14.6812,32.6136 32.83067,32.6375 18.14707,0 32.87878,-14.5771 32.90043,-32.5659" /><path
       inkscape:connector-curvature="0"
       id="path12928"
       style="fill:#505d62;fill-opacity:1;fill-rule:nonzero;stroke:none;stroke-width:0.23954572"
       d="m 566.09703,1953.8134 c -2.67456,-0.7158 -5.4814,-1.0736 -8.37723,-1.0975 -18.15909,-0.024 -32.88118,14.5771 -32.90043,32.5659 -0.01,14.3385 9.2888,26.5059 22.23828,30.8958 8.77889,-19.6588 15.25123,-40.5582 19.03938,-62.3642" /><path
       inkscape:connector-curvature="0"
       id="path12930"
       style="fill:#505d62;fill-opacity:1;fill-rule:nonzero;stroke:none;stroke-width:0.23954572"
       d="m 77.105184,1897.2943 c 0.01002,-17.9887 -14.681204,-32.6135 -32.830675,-32.6374 -3.107489,0 -6.113961,0.4295 -8.968907,1.2168 -2.195927,13.6705 -3.338386,27.675 -3.348007,41.9419 -0.01002,6.7279 0.230897,13.3842 0.731174,19.969 3.578904,1.3599 7.465671,2.0756 11.525611,2.0756 18.139849,0.024 32.871562,-14.5532 32.890804,-32.5659" /><path
       inkscape:connector-curvature="0"
       id="path12932"
       style="fill:#505d62;fill-opacity:1;fill-rule:nonzero;stroke:none;stroke-width:0.23954572"
       d="m 179.80627,1897.4136 c 0.019,-18.0126 -14.67159,-32.6135 -32.82106,-32.6374 -18.15909,-0.024 -32.88118,14.5533 -32.90042,32.5659 -0.019,18.0126 14.6812,32.6135 32.83067,32.6374 18.14947,0 32.88119,-14.5533 32.89081,-32.5659" /><path
       inkscape:connector-curvature="0"
       id="path12934"
       style="fill:#505d62;fill-opacity:1;fill-rule:nonzero;stroke:none;stroke-width:0.23954572"
       d="m 282.51697,1897.5091 c 0.019,-17.9888 -14.6812,-32.6136 -32.83067,-32.6374 -18.14947,0 -32.88119,14.577 -32.90043,32.5658 -0.019,18.0126 14.68121,32.6136 32.83068,32.6374 18.14947,0.024 32.88118,-14.5532 32.90042,-32.5658" /><path
       inkscape:connector-curvature="0"
       id="path12936"
       style="fill:#505d62;fill-opacity:1;fill-rule:nonzero;stroke:none;stroke-width:0.23954572"
       d="m 385.22768,1897.6284 c 0.022,-18.0127 -14.68121,-32.6136 -32.83068,-32.6375 -18.14947,-0.024 -32.88118,14.5533 -32.90042,32.5659 -0.019,17.9887 14.6812,32.6135 32.83067,32.6374 18.14947,0.024 32.88118,-14.5771 32.90043,-32.5658" /><path
       inkscape:connector-curvature="0"
       id="path12938"
       style="fill:#505d62;fill-opacity:1;fill-rule:nonzero;stroke:none;stroke-width:0.23954572"
       d="m 487.92876,1897.7238 c 0.022,-17.9888 -14.6812,-32.6136 -32.83067,-32.6374 -18.14947,0 -32.88119,14.5771 -32.89081,32.5658 -0.019,18.0126 14.67159,32.6136 32.82106,32.6374 18.15909,0.024 32.88118,-14.5532 32.90042,-32.5658" /><path
       inkscape:connector-curvature="0"
       id="path12940"
       style="fill:#505d62;fill-opacity:1;fill-rule:nonzero;stroke:none;stroke-width:0.23954572"
       d="m 570.03671,1908.3882 c 0.019,-14.2669 -1.10397,-28.2714 -3.26863,-41.9419 -2.84533,-0.8112 -5.8518,-1.2406 -8.95929,-1.2406 -18.15909,-0.024 -32.87878,14.5532 -32.90042,32.5658 -0.019,18.0126 14.6812,32.6136 32.83067,32.6374 4.05994,0 7.93709,-0.7396 11.52561,-2.0517 0.5099,-6.5848 0.76244,-13.265 0.77206,-19.969" /><path
       inkscape:connector-curvature="0"
       id="path12942"
       style="fill:#505d62;fill-opacity:1;fill-rule:nonzero;stroke:none;stroke-width:0.23954572"
       d="m 77.194175,1809.7841 c 0.01203,-11.0223 -5.500641,-20.804 -13.95003,-26.6969 -9.899711,18.466 -17.678055,38.2679 -22.998308,59.0003 1.332468,0.167 2.674557,0.2624 4.057534,0.2624 18.149471,0 32.871563,-14.5771 32.890804,-32.5658" /><path
       inkscape:connector-curvature="0"
       id="path12944"
       style="fill:#505d62;fill-opacity:1;fill-rule:nonzero;stroke:none;stroke-width:0.23954572"
       d="m 179.90728,1809.8795 c 0.0191,-17.9887 -14.6836,-32.6135 -32.83067,-32.6374 -18.14947,-0.024 -32.88118,14.5771 -32.90283,32.5658 -0.019,18.0126 14.68361,32.6136 32.83068,32.6375 18.14947,0.024 32.88118,-14.5533 32.90282,-32.5659" /><path
       inkscape:connector-curvature="0"
       id="path12946"
       style="fill:#505d62;fill-opacity:1;fill-rule:nonzero;stroke:none;stroke-width:0.23954572"
       d="m 282.60837,1809.9988 c 0.019,-18.0126 -14.67158,-32.6136 -32.83068,-32.6374 -18.14947,-0.024 -32.87156,14.5532 -32.8908,32.5658 -0.0221,17.9888 14.67158,32.6136 32.83067,32.6374 18.14707,0.024 32.86916,-14.577 32.89081,-32.5658" /><path
       inkscape:connector-curvature="0"
       id="path12948"
       style="fill:#505d62;fill-opacity:1;fill-rule:nonzero;stroke:none;stroke-width:0.23954572"
       d="m 385.31907,1810.0942 c 0.019,-18.0126 -14.6812,-32.6135 -32.83067,-32.6374 -18.14947,0 -32.88118,14.5771 -32.90043,32.5659 -0.022,18.0126 14.68121,32.6374 32.83068,32.6374 18.14706,0.024 32.87878,-14.5533 32.90042,-32.5659" /><path
       inkscape:connector-curvature="0"
       id="path12950"
       style="fill:#505d62;fill-opacity:1;fill-rule:nonzero;stroke:none;stroke-width:0.23954572"
       d="m 488.02016,1810.2135 c 0.019,-18.0126 -14.67159,-32.6374 -32.82106,-32.6374 -18.15909,-0.024 -32.88118,14.5532 -32.90042,32.5658 -0.022,18.0127 14.6812,32.6136 32.83067,32.6375 18.14947,0 32.88119,-14.5771 32.89081,-32.5659" /><path
       inkscape:connector-curvature="0"
       id="path12952"
       style="fill:#505d62;fill-opacity:1;fill-rule:nonzero;stroke:none;stroke-width:0.23954572"
       d="m 561.87835,1842.6362 c -5.27215,-20.7562 -13.0072,-40.5582 -22.86843,-59.0479 -8.45901,5.869 -13.99092,15.6268 -14.00054,26.6491 -0.019,18.0126 14.67159,32.6135 32.83068,32.6374 1.36373,0 2.71544,-0.072 4.03829,-0.2386" /><path
       inkscape:connector-curvature="0"
       id="path12954"
       style="fill:#505d62;fill-opacity:1;fill-rule:nonzero;stroke:none;stroke-width:0.23954572"
       d="m 179.99628,1722.3454 c 0.019,-17.9888 -14.68121,-32.6136 -32.83068,-32.6136 -0.29102,0 -0.58205,0 -0.87067,0 -11.06382,7.7061 -21.49748,16.2472 -31.23845,25.4801 -0.5099,2.2665 -0.78168,4.6523 -0.7913,7.0858 -0.01,17.9887 14.6812,32.6135 32.84029,32.6135 18.13985,0.024 32.87157,-14.5532 32.89081,-32.5658" /><path
       inkscape:connector-curvature="0"
       id="path12956"
       style="fill:#505d62;fill-opacity:1;fill-rule:nonzero;stroke:none;stroke-width:0.23954572"
       d="m 282.70698,1722.4647 c 0.01,-18.0126 -14.6812,-32.6136 -32.83067,-32.6136 -18.14947,-0.024 -32.88119,14.5533 -32.90043,32.542 -0.019,18.0126 14.68121,32.6136 32.83068,32.6374 18.14947,0.024 32.88118,-14.5532 32.90042,-32.5658" /><path
       inkscape:connector-curvature="0"
       id="path12958"
       style="fill:#505d62;fill-opacity:1;fill-rule:nonzero;stroke:none;stroke-width:0.23954572"
       d="m 385.40806,1722.584 c 0.0221,-18.0126 -14.6812,-32.6136 -32.83067,-32.6374 -18.14947,-0.024 -32.88118,14.5532 -32.90042,32.5658 -0.01,17.9887 14.6812,32.6136 32.83067,32.6374 18.14947,0 32.88118,-14.5771 32.90042,-32.5658" /><path
       inkscape:connector-curvature="0"
       id="path12960"
       style="fill:#505d62;fill-opacity:1;fill-rule:nonzero;stroke:none;stroke-width:0.23954572"
       d="m 488.10915,1722.6794 c 0.01,-2.4335 -0.25976,-4.7954 -0.77206,-7.0619 -9.71933,-9.2807 -20.13134,-17.8217 -31.17592,-25.5517 -0.2814,-0.024 -0.57243,-0.024 -0.87308,-0.024 -18.15909,-0.024 -32.87877,14.5771 -32.90042,32.5658 -0.019,18.0126 14.6812,32.6136 32.83067,32.6374 18.14947,0.024 32.88119,-14.5532 32.89081,-32.5658" /><path
       inkscape:connector-curvature="0"
       id="path12962"
       style="fill:#505d62;fill-opacity:1;fill-rule:nonzero;stroke:none;stroke-width:0.23954572"
       d="m 282.03594,1641.897 c -20.59313,1.4076 -40.53687,5.1294 -59.5979,10.8792 5.87344,8.875 15.97519,14.7202 27.45991,14.7441 15.75392,0 28.92226,-10.9746 32.13799,-25.6233" /><path
       inkscape:connector-curvature="0"
       id="path12964"
       style="fill:#505d62;fill-opacity:1;fill-rule:nonzero;stroke:none;stroke-width:0.23954572"
       d="m 380.08781,1652.9432 c -19.04179,-5.7975 -38.98552,-9.567 -59.56903,-11.0223 3.18686,14.6725 16.33596,25.6709 32.08988,25.6948 11.48472,0.024 21.60571,-5.8213 27.47915,-14.6725" /><path
       inkscape:connector-curvature="0"
       id="path12966"
       style="fill:#222526;fill-opacity:1;fill-rule:nonzero;stroke:none;stroke-width:0.23954572"
       d="m 557.1185,1865.3011 -514.147597,0.095 c -18.238462,0 -33.030304,14.6725 -33.0206832,32.7806 v 0 c 0,18.0842 14.7918422,32.7567 33.0423302,32.7567 l 514.1452,-0.095 c 18.24086,0 33.0327,-14.6726 33.02068,-32.7806 v 0 c 0,-18.0842 -14.79184,-32.7567 -33.03993,-32.7567" /><path
       inkscape:connector-curvature="0"
       id="path12968"
       style="fill:#110f0e;fill-opacity:1;fill-rule:nonzero;stroke:none;stroke-width:0.23954572"
       d="m 590.15843,1898.0578 -580.2082102,0.1193 v 0 c -0.010022,-18.1081 14.7822212,-32.7806 33.0206832,-32.7806 l 514.147597,-0.095 c 18.24809,0 33.03993,14.6725 33.03993,32.7567" /><path
       inkscape:connector-curvature="0"
       id="path12970"
       style="fill:#151817;fill-opacity:1;fill-rule:nonzero;stroke:none;stroke-width:0.23954572"
       d="m 299.98578,1529.2884 -145.29438,-0.1432 43.25472,-690.29321 c 3.37687,-53.87798 48.44268,-95.84616 102.86944,-95.79845 54.42917,0.0597 99.41561,42.13042 102.68185,96.01794 l 41.78996,690.38392 -145.30159,-0.167" /><path
       inkscape:connector-curvature="0"
       id="path12972"
       style="fill:#171f1f;fill-opacity:1;fill-rule:nonzero;stroke:none;stroke-width:0.23954572"
       d="m 300.81556,743.05354 v 0 c -54.42676,-0.0477 -99.49257,41.92047 -102.86944,95.79845 l -43.25472,690.29321 145.29438,0.1432 0.82978,-786.23486" /><path
       inkscape:connector-curvature="0"
       id="path12974"
       style="fill:#ff0000;fill-opacity:1;fill-rule:nonzero;stroke:none;stroke-width:0.23954572"
       d="m 584.68665,1490.4002 -569.413772,0.095 C 6.8427303,1490.4957 0,1497.2713 0,1505.6454 l 0.03808198,215.2208 c 0,8.3741 6.84513542,15.1497 15.28249802,15.1497 l 569.40656,-0.095 c 8.43736,0 15.27288,-6.7756 15.27288,-15.1497 l -0.0411,-215.2209 c 0,-8.3741 -6.84273,-15.1497 -15.27288,-15.1497" /><path
       inkscape:connector-curvature="0"
       id="path12976"
       style="fill:#e5ff80;fill-opacity:1;fill-rule:nonzero;stroke:none;stroke-width:0.23954572"
       d="m 68.206027,1554.506 0.02906,123.0345 32.751303,-0.024 25.75464,-45.0912 c 7.35744,-12.9548 14.71248,-28.2953 20.23476,-42.1567 h 0.55079 c -1.83275,16.2472 -2.38594,32.8522 -2.38594,51.2942 l 0.012,35.9537 h 25.76426 l -0.019,-123.0345 h -29.44458 l -26.49785,47.4769 c -7.35503,13.1457 -15.453264,29.0111 -21.514312,43.445 l -0.562812,-0.1908 c 0.7432,-16.2472 1.103977,-33.5918 1.103977,-53.6562 l -0.01203,-37.0511 H 68.206027" /><path
       inkscape:connector-curvature="0"
       id="path12978"
       style="fill:#e5ff80;fill-opacity:1;fill-rule:nonzero;stroke:none;stroke-width:0.23954572"
       d="M 268.98785,1606.4921 H 223.3496 v -29.2019 h 50.97053 v -22.8319 l -79.13035,0.024 0.019,123.0106 h 76.5544 l -0.01,-22.808 H 223.3586 v -25.5517 h 45.63825 l -0.01,-22.641" /><path
       inkscape:connector-curvature="0"
       id="path12980"
       style="fill:#ddff55;fill-opacity:1;fill-rule:nonzero;stroke:none;stroke-width:0.23954572"
       d="m 314.80648,1554.4583 -29.42254,123.0345 h 29.99497 l 9.3802,-50.7455 c 2.75392,-14.6248 5.32025,-30.4902 7.34541,-42.8962 h 0.3704 c 2.02516,13.3126 4.9715,28.1044 8.10785,43.2541 l 10.49138,50.3637 h 29.81459 l 9.93097,-51.8429 c 2.75634,-14.4101 4.7815,-27.5557 6.61424,-41.25 h 0.3704 c 1.84477,13.6943 4.6011,28.1044 7.18667,42.7054 l 10.12099,50.3875 h 28.53262 l -32.04899,-123.0344 -30.36537,0.024 -10.47214,52.9165 c -2.39556,12.4299 -4.4111,23.9055 -5.88307,37.9816 h -0.37039 c -2.20555,-13.8852 -4.24033,-25.5517 -7.18667,-37.9816 l -11.78537,-52.9165 h -30.72615" /><path
       inkscape:connector-curvature="0"
       id="path12982"
       style="fill:#ddff55;fill-opacity:1;fill-rule:nonzero;stroke:none;stroke-width:0.23954572"
       d="m 457.6139,1583.0876 c 7.54745,-3.8411 19.1404,-7.6822 31.09654,-7.6822 12.88935,0 19.6936,5.2965 19.6936,13.3365 0,7.6584 -5.88307,12.0482 -20.78555,17.3446 -20.61478,7.1096 -34.04288,18.4421 -34.04288,36.3354 0.01,20.9948 17.67805,37.0511 46.92982,37.0511 13.99092,-0.024 24.2923,-2.9345 31.65936,-6.2269 l -6.26309,-22.4501 c -4.9715,2.3619 -13.8009,5.8451 -25.94705,5.8451 -12.14615,0 -18.03883,-5.4634 -18.03883,-11.8573 0,-7.8492 6.99666,-11.3086 23.00071,-17.3446 21.89674,-8.04 32.19811,-19.3725 32.19811,-36.6932 0,-20.637 -16.01367,-38.1486 -50.05655,-38.1486 -14.17131,0 -28.16223,3.6503 -35.15649,7.4914 l 5.7123,22.9988" /><path
       inkscape:connector-curvature="0"
       id="path12984"
       style="fill:#f6c477;fill-opacity:1;fill-rule:nonzero;stroke:none;stroke-width:0.23954572"
       d="m 266.40228,1194.6833 -2.42442,3.7457 c -15.25363,23.5953 -8.269,55.2545 15.50378,70.3804 l 145.54211,92.5919 c 23.77037,15.1259 55.6991,8.2071 70.95273,-15.3882 l 2.42442,-3.7695 c 15.25364,-23.5715 8.27862,-55.2546 -15.50137,-70.3804 l -145.53489,-92.5681 c -23.77999,-15.1306 -55.70872,-8.2023 -70.96236,15.3882" /><path
       inkscape:connector-curvature="0"
       id="path12986"
       style="fill:#f6c477;fill-opacity:1;fill-rule:nonzero;stroke:none;stroke-width:0.23954572"
       d="m 276.35491,1081.5164 -0.11064,0.198 c -13.76964,26.1457 -3.47789,58.7211 22.87805,72.3797 l 181.9613,94.3407 c 26.35835,13.6705 59.19864,3.4594 72.9779,-22.6887 l 0.10102,-0.1909 c 13.77926,-26.1719 3.47789,-58.7282 -22.88045,-72.3963 l -181.95169,-94.336 c -26.36556,-13.6705 -59.20585,-3.4498 -72.97549,22.6935" /><path
       inkscape:connector-curvature="0"
       id="path12988"
       style="fill:#f6c477;fill-opacity:1;fill-rule:nonzero;stroke:none;stroke-width:0.23954572"
       d="m 305.36616,975.34939 -2.0444,5.3179 c -9.99111,26.08601 3.33838,55.53841 29.63419,65.46091 l 190.93022,72.0099 c 26.29821,9.92 56.00215,-3.2996 65.99326,-29.3856 l 2.0444,-5.3179 c 9.99111,-26.0837 -3.33839,-55.5385 -29.63419,-65.4586 L 371.35942,945.96379 c -26.29821,-9.92006 -56.00215,3.30192 -65.99326,29.3856" /><path
       inkscape:connector-curvature="0"
       id="path12990"
       style="fill:#f6c477;fill-opacity:1;fill-rule:nonzero;stroke:none;stroke-width:0.23954572"
       d="m 369.28375,880.95139 -2.40517,6.26267 c -8.14634,21.24533 2.71544,45.23192 24.13114,53.31255 l 147.60816,55.67922 c 21.4157,8.07107 45.59976,-2.69352 53.7461,-23.93886 l 2.39555,-6.2722 c 8.14634,-21.24295 -2.71544,-45.22954 -24.12152,-53.30063 L 423.02023,857.0149 c -21.4157,-8.08062 -45.59976,2.69355 -53.73648,23.93649" /><path
       inkscape:connector-curvature="0"
       id="path12992"
       style="fill:#ffd5d5;fill-opacity:1;fill-rule:nonzero;stroke:none;stroke-width:0.23954572"
       d="m 349.88119,1216.8472 -29.53318,46.5465 c -2.52544,3.9842 -7.84569,5.1294 -11.79499,2.5289 l -25.33374,-16.5334 c 0,0 -19.30155,-14.3386 -6.35448,-41.7988 0,0 11.71562,-22.6172 36.75833,-20.4223 0,0 9.95263,1.5985 25.3145,13.0025 l 8.25938,5.1056 c 3.96854,2.4573 5.18075,7.6583 2.68418,11.571" /><path
       inkscape:connector-curvature="0"
       id="path12994"
       style="fill:#ffd5d5;fill-opacity:1;fill-rule:nonzero;stroke:none;stroke-width:0.23954572"
       d="m 361.30578,1099.3501 -26.97647,48.0447 c -2.30657,4.1036 -7.55707,5.5255 -11.64587,3.1493 l -26.18517,-15.1688 c 0,0 -20.04475,-13.2816 -8.59851,-41.4123 0,0 10.48176,-23.2017 35.60625,-22.3285 0,0 10.03199,1.0736 25.98554,11.6426 l 8.50711,4.6523 c 4.11045,2.2354 5.59204,7.3649 3.30712,11.4207" /><path
       inkscape:connector-curvature="0"
       id="path12996"
       style="fill:#ffd5d5;fill-opacity:1;fill-rule:nonzero;stroke:none;stroke-width:0.23954572"
       d="m 394.21823,976.12477 -18.60164,51.81183 c -1.58261,4.4233 -6.52284,6.6898 -10.95318,5.0293 l -28.35945,-10.6764 c 0,0 -21.98813,-9.8007 -15.38352,-39.41537 0,0 6.46271,-24.61166 31.38757,-27.87302 0,0 10.07048,-0.5869 27.56815,7.21697 l 9.17094,3.18979 c 4.41831,1.53166 6.7345,6.34377 5.17113,10.7169" /><path
       inkscape:connector-curvature="0"
       id="path12998"
       style="fill:#ffd5d5;fill-opacity:1;fill-rule:nonzero;stroke:none;stroke-width:0.23954572"
       d="m 453.40484,888.1803 -16.26381,45.31781 c -1.395,3.86734 -5.7123,5.85708 -9.58223,4.3946 l -24.81181,-9.33554 c 0,0 -19.2318,-8.56732 -13.45937,-34.48401 0,0 5.65216,-21.5197 27.4575,-24.37308 0,0 8.81017,-0.51772 24.11191,6.31276 l 8.02848,2.78181 c 3.86753,1.35274 5.89269,5.55648 4.51933,9.38565" /><path
       inkscape:connector-curvature="0"
       id="path13000"
       style="fill:#f6c477;fill-opacity:1;fill-rule:nonzero;stroke:none;stroke-width:0.23954572"
       d="m 178.45215,1077.5512 c -3.32636,22.6148 -6.66234,45.3775 -5.92154,68.2213 0.75041,22.8438 5.81331,46.0002 18.14947,65.3249 9.37057,14.6726 22.53891,26.5537 33.22993,40.3197 37.93206,48.8368 39.77683,122.1994 4.34134,172.8256 -4.28121,6.1314 -10.30378,12.5014 -17.76945,11.8811 -6.11396,-0.501 -10.71266,-5.5588 -14.45993,-10.3781 -24.77332,-31.9217 -41.68172,-69.5931 -68.99011,-99.3914 -18.83976,-20.5654 -42.261375,-36.908 -59.04711,-59.1434 C 49.294115,1242.4465 40.055828,1212.0756 31.916707,1182.2057 18.339479,1132.3525 11.924871,1079.2809 8.6466135,1027.1994 l 176.0397565,13.8495 c -2.33542,12.1555 -4.43996,24.323 -6.23422,36.5023" /><path
       inkscape:connector-curvature="0"
       id="path13002"
       style="fill:#ffd5d5;fill-opacity:1;fill-rule:nonzero;stroke:none;stroke-width:0.23954572"
       d="m 168.14116,1367.4612 28.32096,-18.9669 c 2.4148,-1.6223 6.43385,0.9543 8.90878,5.702 l 15.85493,30.3948 c 0,0 11.81423,24.5973 -1.66438,38.7688 0,0 -11.8455,10.9746 -29.6342,-7.3959 0,0 -6.95336,-7.9207 -16.36482,-27.4841 l -5.21202,-9.6624 c -2.50379,-4.6523 -2.59519,-9.734 -0.20925,-11.3563" /><path
       inkscape:connector-curvature="0"
       id="path13018"
       style="fill:#ffffff;fill-opacity:1;fill-rule:nonzero;stroke:none;stroke-width:0.23954572"
       d="M 445.28737,607.02614 V 535.89899 H 88.108871 v 71.12715 H 445.28737" /><g
       id="g18011"
       transform="matrix(1.0021573,0,0,0.3121981,-1149.165,-0.52156614)"><path
         d="M 1601.1696,1769.7816 1598.9592,1.6706256 H 1202.46 l 2.1792,1759.5597744 0.022,9.3912 396.5088,-0.84"
         style="fill:#3e485e;fill-opacity:1;fill-rule:nonzero;stroke:none;stroke-width:0.23999999"
         id="path16256"
         inkscape:connector-curvature="0" /><path
         d="M 1402.9104,1760.82 1400.7,1.6706256 h -198.24 l 2.1792,1759.5597744 198.2712,-0.4104"
         style="fill:#2b374d;fill-opacity:1;fill-rule:nonzero;stroke:none;stroke-width:0.23999999"
         id="path16258"
         inkscape:connector-curvature="0" /></g></g></svg>