<?xml version="1.0" encoding="UTF-8" standalone="no"?>

<svg
   xmlns:dc="http://purl.org/dc/elements/1.1/"
   xmlns:cc="http://creativecommons.org/ns#"
   xmlns:rdf="http://www.w3.org/1999/02/22-rdf-syntax-ns#"
   xmlns:svg="http://www.w3.org/2000/svg"
   xmlns="http://www.w3.org/2000/svg"
   xmlns:sodipodi="http://sodipodi.sourceforge.net/DTD/sodipodi-0.dtd"
   xmlns:inkscape="http://www.inkscape.org/namespaces/inkscape"
   version="1.1"
   id="svg2"
   xml:space="preserve"
   width="1300"
   height="50"
   viewBox="0 0 1300 50"
   sodipodi:docname="Monitor_base.svg"
   inkscape:version="0.92.5 (2060ec1f9f, 2020-04-08)"><metadata
     id="metadata8"><rdf:RDF><cc:Work
         rdf:about=""><dc:format>image/svg+xml</dc:format><dc:type
           rdf:resource="http://purl.org/dc/dcmitype/StillImage" /><dc:title /></cc:Work></rdf:RDF></metadata><defs
     id="defs6"><linearGradient
       x1="0"
       y1="0"
       x2="1"
       y2="0"
       gradientUnits="userSpaceOnUse"
       gradientTransform="matrix(-2.19e-5,-500,-500,2.19e-5,249.99951,500)"
       spreadMethod="pad"
       id="linearGradient32"><stop
         style="stop-opacity:1;stop-color:#b2dfdc"
         offset="0"
         id="stop24" /><stop
         style="stop-opacity:1;stop-color:#b2dfdc"
         offset="0.0122569"
         id="stop26" /><stop
         style="stop-opacity:1;stop-color:#6cb2ba"
         offset="0.89101626"
         id="stop28" /><stop
         style="stop-opacity:1;stop-color:#6cb2ba"
         offset="1"
         id="stop30" /></linearGradient><clipPath
       clipPathUnits="userSpaceOnUse"
       id="clipPath44"><path
         d="M 0,500 H 500 V 0 H 0 Z"
         id="path42"
         inkscape:connector-curvature="0" /></clipPath><clipPath
       clipPathUnits="userSpaceOnUse"
       id="clipPath52"><path
         d="M 0,381 H 119 V 275 H 0 Z"
         id="path50"
         inkscape:connector-curvature="0" /></clipPath><clipPath
       clipPathUnits="userSpaceOnUse"
       id="clipPath66"><path
         d="m 398.52,285.53 h 36.96 v -36.06 h -36.96 z"
         id="path64"
         inkscape:connector-curvature="0" /></clipPath><clipPath
       clipPathUnits="userSpaceOnUse"
       id="clipPath82"><path
         d="m 369,333 h 34 v -33 h -34 z"
         id="path80"
         inkscape:connector-curvature="0" /></clipPath><clipPath
       clipPathUnits="userSpaceOnUse"
       id="clipPath96"><path
         d="m 407.84,364.236 h 38.32 v -37.472 h -38.32 z"
         id="path94"
         inkscape:connector-curvature="0" /></clipPath><clipPath
       clipPathUnits="userSpaceOnUse"
       id="clipPath112"><path
         d="m 367.156,89.5181 h 52.778 V 50.7363 h -52.778 z"
         id="path110"
         inkscape:connector-curvature="0" /></clipPath><clipPath
       clipPathUnits="userSpaceOnUse"
       id="clipPath128"><path
         d="M 51.2852,98.4229 H 130.029 V 50.8359 H 51.2852 Z"
         id="path126"
         inkscape:connector-curvature="0" /></clipPath><clipPath
       clipPathUnits="userSpaceOnUse"
       id="clipPath144"><path
         d="M 141.972,108.431 H 362.321 V 68.6421 H 141.972 Z"
         id="path142"
         inkscape:connector-curvature="0" /></clipPath><clipPath
       clipPathUnits="userSpaceOnUse"
       id="clipPath160"><path
         d="m 139,116 h 222 v -4 H 139 Z"
         id="path158"
         inkscape:connector-curvature="0" /></clipPath><clipPath
       clipPathUnits="userSpaceOnUse"
       id="clipPath176"><path
         d="M 52.4795,117.278 H 121.826 V 104.937 H 52.4795 Z"
         id="path174"
         inkscape:connector-curvature="0" /></clipPath><clipPath
       clipPathUnits="userSpaceOnUse"
       id="clipPath192"><path
         d="m 369.479,109.278 h 69.347 V 96.9365 h -69.347 z"
         id="path190"
         inkscape:connector-curvature="0" /></clipPath><clipPath
       clipPathUnits="userSpaceOnUse"
       id="clipPath224"><path
         d="M 382.605,220 H 438 v -72 h -55.395 z"
         id="path222"
         inkscape:connector-curvature="0" /></clipPath><clipPath
       clipPathUnits="userSpaceOnUse"
       id="clipPath228"><path
         d="m 437.667,219.407 c -6,0.334 -19.333,0.297 -25,-0.036 -14,-0.667 -16.334,-17.704 -13.667,-30.038 1.333,-5 4.333,-8.333 0.667,-13 -3,-4 -9,-5.333 -12.334,-9.333 -4.728,-5.438 -3.251,-12.049 -0.685,-17.931 4.036,-0.43 9.832,-0.7 16.286,-0.7 5.269,0 10.1,0.181 13.895,0.48 -0.846,5.154 -2.321,11.172 -0.829,15.151 1.667,4 6,4.333 8.333,7.667 2.334,2.666 2.334,7.333 2,10.666 -1,7.334 -7,13 -4,21 2.334,7 9.334,12.408 15.334,16.074"
         id="path226"
         inkscape:connector-curvature="0" /></clipPath><clipPath
       clipPathUnits="userSpaceOnUse"
       id="clipPath460"><path
         d="m 212.58,151.994 h 75.245 V 118.745 H 212.58 Z"
         id="path458"
         inkscape:connector-curvature="0" /></clipPath><clipPath
       clipPathUnits="userSpaceOnUse"
       id="clipPath464"><path
         d="m 235.037,151.994 c 0,0 -0.583,-28.875 -22.457,-28.875 v -4.374 h 75.245 v 4.667 c 0,0 -20.706,3.209 -20.706,28.582 z"
         id="path462"
         inkscape:connector-curvature="0" /></clipPath><linearGradient
       x1="0"
       y1="0"
       x2="1"
       y2="0"
       gradientUnits="userSpaceOnUse"
       gradientTransform="matrix(-1.5e-6,33.248535,33.248535,1.5e-6,250.20264,118.74512)"
       spreadMethod="pad"
       id="linearGradient474"><stop
         style="stop-opacity:0;stop-color:#ffffff"
         offset="0"
         id="stop470" /><stop
         style="stop-opacity:1;stop-color:#ffffff"
         offset="1"
         id="stop472" /></linearGradient><mask
       maskUnits="userSpaceOnUse"
       x="0"
       y="0"
       width="1"
       height="1"
       id="mask476"><g
         id="g486"><g
           id="g484"><g
             id="g482"><g
               id="g480"><path
                 d="M -32768,32767 H 32767 V -32768 H -32768 Z"
                 style="fill:url(#linearGradient474);stroke:none"
                 id="path478"
                 inkscape:connector-curvature="0" /></g></g></g></g></mask><linearGradient
       x1="0"
       y1="0"
       x2="1"
       y2="0"
       gradientUnits="userSpaceOnUse"
       gradientTransform="matrix(-1.5e-6,33.248535,33.248535,1.5e-6,250.20264,118.74512)"
       spreadMethod="pad"
       id="linearGradient492"><stop
         style="stop-opacity:1;stop-color:#ffffff"
         offset="0"
         id="stop488" /><stop
         style="stop-opacity:1;stop-color:#a8abad"
         offset="1"
         id="stop490" /></linearGradient><clipPath
       clipPathUnits="userSpaceOnUse"
       id="clipPath536"><path
         d="m 138.79,301.614 h 93.171 V 193.949 H 138.79 Z"
         id="path534"
         inkscape:connector-curvature="0" /></clipPath><clipPath
       clipPathUnits="userSpaceOnUse"
       id="clipPath552"><path
         d="m 340.866,209.568 h 20.75 v -38.304 h -20.75 z"
         id="path550"
         inkscape:connector-curvature="0" /></clipPath><clipPath
       clipPathUnits="userSpaceOnUse"
       id="clipPath568"><path
         d="m 303.418,257.8 h 58.198 v -86.536 h -58.198 z"
         id="path566"
         inkscape:connector-curvature="0" /></clipPath><clipPath
       clipPathUnits="userSpaceOnUse"
       id="clipPath584"><path
         d="m 138.79,301.614 h 42.595 V 251.675 H 138.79 Z"
         id="path582"
         inkscape:connector-curvature="0" /></clipPath><clipPath
       clipPathUnits="userSpaceOnUse"
       id="clipPath936"><path
         d="M 81.2002,92.3345 H 120.267 V 85.5234 H 81.2002 Z"
         id="path934"
         inkscape:connector-curvature="0" /></clipPath><clipPath
       clipPathUnits="userSpaceOnUse"
       id="clipPath952"><path
         d="M 78.8037,86.9102 H 115.477 V 83.1865 H 78.8037 Z"
         id="path950"
         inkscape:connector-curvature="0" /></clipPath><clipPath
       clipPathUnits="userSpaceOnUse"
       id="clipPath968"><path
         d="M 61.6665,69.3398 H 99.9814 V 66.4082 H 61.6665 Z"
         id="path966"
         inkscape:connector-curvature="0" /></clipPath><clipPath
       clipPathUnits="userSpaceOnUse"
       id="clipPath984"><path
         d="M 65.2183,74.6494 H 104.664 V 69.9185 H 65.2183 Z"
         id="path982"
         inkscape:connector-curvature="0" /></clipPath><clipPath
       clipPathUnits="userSpaceOnUse"
       id="clipPath1012"><path
         d="m 377.647,91.219 c -2.334,-0.791 -4.925,-1.538 -6.788,-3.237 v 0 c -0.406,-0.371 -0.748,-0.815 -1.033,-1.297 v 0 c 2.159,-7.564 8.794,-13.682 14.357,-18.741 v 0 c 3.69,-3.473 6.848,-4.901 11.56,-6.456 v 0 c 7.889,-2.49 15.136,-0.577 20.958,4.063 v 0 c -0.145,1.89 -0.955,3.412 -1.253,4.005 v 0 c -0.563,1.121 -1.702,2.11 -2.538,3.022 v 0 c -1.794,1.96 -3.648,3.863 -5.53,5.74 v 0 c -3.874,3.868 -7.853,7.745 -12.229,11.049 v 0 c -3.011,2.273 -6.369,3.224 -9.836,3.224 v 0 c -2.527,0 -5.113,-0.505 -7.668,-1.372"
         id="path1010"
         inkscape:connector-curvature="0" /></clipPath><clipPath
       clipPathUnits="userSpaceOnUse"
       id="clipPath1024"><path
         d="M 0,500 H 500 V 0 H 0 Z"
         id="path1022"
         inkscape:connector-curvature="0" /></clipPath><clipPath
       clipPathUnits="userSpaceOnUse"
       id="clipPath1036"><path
         d="M 6,350 H 107 V 286 H 6 Z"
         id="path1034"
         inkscape:connector-curvature="0" /></clipPath><clipPath
       clipPathUnits="userSpaceOnUse"
       id="clipPath1118"><path
         d="m 85.4687,204.932 h 10.335 v -76.873 h -10.335 z"
         id="path1116"
         inkscape:connector-curvature="0" /></clipPath><clipPath
       clipPathUnits="userSpaceOnUse"
       id="clipPath1142"><path
         d="m 87.498,193.887 7.356,-0.353 -0.766,-17.086 c 2.106,-1.761 3.579,18.268 3.579,18.268 v 0 c 0,0 0.309,28.366 -2.709,29.863 v 0 c -0.197,0.098 -0.393,0.147 -0.588,0.147 v 0 c -2.788,0 -5.33,-10.026 -6.872,-30.839"
         id="path1140"
         inkscape:connector-curvature="0" /></clipPath><clipPath
       clipPathUnits="userSpaceOnUse"
       id="clipPath1154"><path
         d="M 0,500 H 500 V 0 H 0 Z"
         id="path1152"
         inkscape:connector-curvature="0" /></clipPath><clipPath
       clipPathUnits="userSpaceOnUse"
       id="clipPath1234"><path
         d="m 61.666,175.005 c 0.664,-8.535 2.885,-62.123 9.508,-63.192 v 0 c 4.969,-0.802 9.788,-1.2 14.271,-1.337 v 0 l 2.674,-0.008 c 4.563,0.128 9.482,0.526 14.557,1.345 v 0 c 6.623,1.069 8.844,54.657 9.507,63.192 v 0 c -9.6,-5.791 -49.459,-3.427 -50.517,0"
         id="path1232"
         inkscape:connector-curvature="0" /></clipPath><clipPath
       clipPathUnits="userSpaceOnUse"
       id="clipPath1242"><path
         d="M 50.1279,174.484 H 121.061 V 108.452 H 50.1279 Z"
         id="path1240"
         inkscape:connector-curvature="0" /></clipPath><clipPath
       clipPathUnits="userSpaceOnUse"
       id="clipPath1414"><path
         d="M 0,0 H 500 V 500 H 0 Z"
         id="path1412"
         inkscape:connector-curvature="0" /></clipPath><clipPath
       clipPathUnits="userSpaceOnUse"
       id="clipPath1462"><path
         d="M 0,500 H 500 V 0 H 0 Z"
         id="path1460"
         inkscape:connector-curvature="0" /></clipPath><clipPath
       clipPathUnits="userSpaceOnUse"
       id="clipPath1472"><path
         d="m 380.185,342 h 6.274 v -13.092 h -6.274 z"
         id="path1470"
         inkscape:connector-curvature="0" /></clipPath><clipPath
       clipPathUnits="userSpaceOnUse"
       id="clipPath1492"><path
         d="m 411.854,293.048 h 7.338 v -13.081 h -7.338 z"
         id="path1490"
         inkscape:connector-curvature="0" /></clipPath><clipPath
       clipPathUnits="userSpaceOnUse"
       id="clipPath1512"><path
         d="m 418.28,370.822 h 8.074 v -13.119 h -8.074 z"
         id="path1510"
         inkscape:connector-curvature="0" /></clipPath><clipPath
       clipPathUnits="userSpaceOnUse"
       id="clipPath1528"><path
         d="M 0,0 H 500 V 500 H 0 Z"
         id="path1526"
         inkscape:connector-curvature="0" /></clipPath><clipPath
       clipPathUnits="userSpaceOnUse"
       id="clipPath1472-5"><path
         d="m 380.185,342 h 6.274 v -13.092 h -6.274 z"
         id="path1470-4"
         inkscape:connector-curvature="0" /></clipPath></defs><sodipodi:namedview
     pagecolor="#ffffff"
     bordercolor="#666666"
     borderopacity="1"
     objecttolerance="10"
     gridtolerance="10"
     guidetolerance="10"
     inkscape:pageopacity="0"
     inkscape:pageshadow="2"
     inkscape:window-width="1920"
     inkscape:window-height="986"
     id="namedview4"
     showgrid="false"
     inkscape:snap-bbox="true"
     inkscape:zoom="1.0012632"
     inkscape:cx="652.44151"
     inkscape:cy="73.885827"
     inkscape:window-x="-11"
     inkscape:window-y="-11"
     inkscape:window-maximized="1"
     inkscape:current-layer="g10" /><g
     id="g10"
     inkscape:groupmode="layer"
     inkscape:label="162620-OVDA0U-718"
     transform="matrix(1.3333333,0,0,-1.3333333,0,49.99998)"><path
       inkscape:connector-curvature="0"
       id="path524"
       style="fill:#d4d5d8;fill-opacity:1;fill-rule:nonzero;stroke:none;stroke-width:2.57159853"
       d="M 38.286427,-1.5e-5 H 936.7136 c 21.14286,0 38.28642,5.9200201 38.28642,13.22445 V 37.499986 H 0 V 13.224435 C 0,5.9200051 17.139194,-1.5e-5 38.286428,-1.5e-5"
       inkscape:export-xdpi="295.858"
       inkscape:export-ydpi="295.858" /><g
       id="g526"
       transform="matrix(2.4260853,0,0,3.6353799,506.25001,17.80797)"
       inkscape:export-xdpi="295.858"
       inkscape:export-ydpi="295.858"><path
         d="m 0,0 c 0,-1.932 -3.462,-3.5 -7.728,-3.5 -4.268,0 -7.729,1.568 -7.729,3.5 0,1.934 3.461,3.501 7.729,3.501 C -3.462,3.501 0,1.934 0,0"
         style="fill:#3b3d40;fill-opacity:1;fill-rule:nonzero;stroke:none"
         id="path528"
         inkscape:connector-curvature="0" /></g></g></svg>